<svg xmlns="http://www.w3.org/2000/svg" version="1.1" xmlns:xlink="http://www.w3.org/1999/xlink" xmlns:svgjs="http://svgjs.com/svgjs" width="512" height="512" x="0" y="0" viewBox="0 0 32 32" style="enable-background:new 0 0 512 512" xml:space="preserve" class=""><g><g id="Layer_2" data-name="Layer 2"><path d="m16.52 8.55h-8a1 1 0 0 0 0 2h8a1 1 0 0 0 0-2z" fill="#9a9a9a" data-original="#000000" class=""></path><path d="m16.52 13.9h-8a1 1 0 0 0 0 2h8a1 1 0 0 0 0-2z" fill="#9a9a9a" data-original="#000000" class=""></path><path d="m16.52 19.37h-8a1 1 0 0 0 0 2h8a1 1 0 0 0 0-2z" fill="#9a9a9a" data-original="#000000" class=""></path><path d="m25.87 1h-19.74a3.9 3.9 0 0 0 -3.89 3.92v24.39a1.41 1.41 0 0 0 2.14 1.21l3.68-2.21a.35.35 0 0 1 .37 0l4.09 2.45a1.34 1.34 0 0 0 .72.21 1.46 1.46 0 0 0 .73-.2l4.11-2.46a.35.35 0 0 1 .37 0l3.66 2.21a1.39 1.39 0 0 0 1.42 0 1.41 1.41 0 0 0 .71-1.22v-16.86h3.14a2.39 2.39 0 0 0 2.38-2.38v-5.14a3.9 3.9 0 0 0 -3.89-3.92zm-3.63 27.26-2.76-1.66a2.38 2.38 0 0 0 -2.43 0l-3.8 2.28-3.79-2.29a2.38 2.38 0 0 0 -2.46.01l-2.76 1.67v-23.35a1.89 1.89 0 0 1 1.89-1.92h16.52a3.58 3.58 0 0 0 -.41 1.63v23.6zm5.52-18.2a.38.38 0 0 1 -.38.38h-3.14v-5.78a1.63 1.63 0 0 1 1.63-1.66 1.89 1.89 0 0 1 1.89 1.89z" fill="#9a9a9a" data-original="#000000" class=""></path></g></g></svg>