<svg xmlns="http://www.w3.org/2000/svg" version="1.1" xmlns:xlink="http://www.w3.org/1999/xlink" xmlns:svgjs="http://svgjs.com/svgjs" width="512" height="512" x="0" y="0" viewBox="0 0 24 24" style="enable-background:new 0 0 512 512" xml:space="preserve" class=""><g><g id="chat" fill="rgb(0,0,0)" fill-rule="nonzero"><path id="Rectangle" d="m9.86666667 17.6c.51928853-.3894664 1.15088933-.6 1.80000003-.6h7.3333333c.5522847 0 1-.4477153 1-1v-8c0-.55228475-.4477153-1-1-1h-14c-.55228475 0-1 .44771525-1 1v8c0 .5522847.44771525 1 1 1h2c.55228475 0 1 .4477153 1 1v1zm-4.86666667 1.4c-1.65685425 0-3-1.3431458-3-3v-8c0-1.65685425 1.34314575-3 3-3h14c1.6568542 0 3 1.34314575 3 3v8c0 1.6568542-1.3431458 3-3 3h-7.3333333c-.2163702 0-.4269039.0701779-.6.2l-3.4666667 2.6c-.65923625.4944272-1.6.0240453-1.6-.8v-2z" fill="#9a9a9a" data-original="#000000" class=""></path><circle id="Oval" cx="8" cy="12" r="1" fill="#9a9a9a" data-original="#000000" class=""></circle><circle id="Oval-Copy" cx="12" cy="12" r="1" fill="#9a9a9a" data-original="#000000" class=""></circle><circle id="Oval-Copy-2" cx="16" cy="12" r="1" fill="#9a9a9a" data-original="#000000" class=""></circle></g></g></svg>