<svg xmlns="http://www.w3.org/2000/svg" version="1.1" xmlns:xlink="http://www.w3.org/1999/xlink" xmlns:svgjs="http://svgjs.com/svgjs" width="512" height="512" x="0" y="0" viewBox="0 0 32 32" style="enable-background:new 0 0 512 512" xml:space="preserve" class=""><g><g id="Layer_1"><g><g><g><g><path d="m16 1c-8.28 0-15 6.72-15 15s6.72 15 15 15 15-6.72 15-15-6.72-15-15-15zm7.8 8.18-3.77 9.14c-.3101.78-.9301 1.4-1.71 1.71l-9.14 3.77c-.62.25-1.23-.36-.98-.98l3.77-9.14c.3101-.78.9301-1.4 1.71-1.71l9.14-3.77c.62-.25 1.23.36.98.98z" fill="#9a9a9a" data-original="#000000" class=""></path></g></g><g><circle cx="16" cy="16" fill="#9a9a9a" r="2" data-original="#000000" class=""></circle></g></g></g></g></g></svg>