<svg xmlns="http://www.w3.org/2000/svg" version="1.1" xmlns:xlink="http://www.w3.org/1999/xlink" xmlns:svgjs="http://svgjs.com/svgjs" width="512" height="512" x="0" y="0" viewBox="0 0 24 24" style="enable-background:new 0 0 512 512" xml:space="preserve" class=""><g><path id="user-circle" d="m22.75 12a10.75 10.75 0 1 0 -17.281 8.519l.013.01a10.675 10.675 0 0 0 13.036 0l.013-.01a10.726 10.726 0 0 0 4.219-8.519zm-20 0a9.25 9.25 0 1 1 15.838 6.482 4.6 4.6 0 0 0 -4.878-3.662h-3.42a4.6 4.6 0 0 0 -4.878 3.662 9.216 9.216 0 0 1 -2.662-6.482zm4.009 7.614a3.236 3.236 0 0 1 3.531-3.294h3.42a3.236 3.236 0 0 1 3.531 3.294 9.213 9.213 0 0 1 -10.482 0zm5.249-5.864a3.75 3.75 0 1 0 -3.75-3.75 3.755 3.755 0 0 0 3.75 3.75zm0-6a2.25 2.25 0 1 1 -2.25 2.25 2.253 2.253 0 0 1 2.25-2.25z" fill="#9a9a9a" data-original="#000000" class=""></path></g></svg>