<svg xmlns="http://www.w3.org/2000/svg" version="1.1" xmlns:xlink="http://www.w3.org/1999/xlink" xmlns:svgjs="http://svgjs.com/svgjs" width="512" height="512" x="0" y="0" viewBox="0 0 512 512" style="enable-background:new 0 0 512 512" xml:space="preserve" class=""><g><g><path d="m256 0c-141.2 0-256 114.8-256 256s114.8 256 256 256 256-114.8 256-256-114.8-256-256-256zm123.8 244.7c3 3 4.7 7.1 4.7 11.3s-1.7 8.3-4.7 11.3l-82.9 82.9c-3.1 3.1-7.2 4.7-11.3 4.7s-8.2-1.6-11.3-4.7c-6.2-6.2-6.2-16.4 0-22.6l55.6-55.6h-186.4c-8.8 0-16-7.2-16-16s7.2-16 16-16h186.4l-55.6-55.6c-6.2-6.2-6.2-16.4 0-22.6s16.4-6.2 22.6 0z" fill="#ffffff" data-original="#000000" class=""></path></g></g></svg>