<svg xmlns="http://www.w3.org/2000/svg" version="1.1" xmlns:xlink="http://www.w3.org/1999/xlink" xmlns:svgjs="http://svgjs.com/svgjs" width="512" height="512" x="0" y="0" viewBox="0 0 612 612" style="enable-background:new 0 0 512 512" xml:space="preserve" class=""><g>
<g>
	<g id="_x35__2_">
		<g>
			<path d="M431.001,289.189l-108.19-108.19c-7.478-7.478-19.583-7.478-27.042,0c-7.478,7.478-7.478,19.584,0,27.043l78.814,78.833
				H172.125C161.568,286.875,153,295.443,153,306c0,10.557,8.568,19.125,19.125,19.125h202.457l-78.814,78.814
				c-7.478,7.478-7.478,19.584,0,27.042c7.478,7.479,19.584,7.479,27.042,0l108.19-108.189c4.59-4.59,6.005-10.863,4.973-16.811
				C437.006,300.071,435.572,293.779,431.001,289.189z M306,0C136.992,0,0,136.992,0,306s136.992,306,306,306s306-137.012,306-306
				S475.008,0,306,0z M306,573.75C158.125,573.75,38.25,453.875,38.25,306C38.25,158.125,158.125,38.25,306,38.25
				c147.875,0,267.75,119.875,267.75,267.75C573.75,453.875,453.875,573.75,306,573.75z" fill="#262b2e" data-original="#000000" class=""></path>
		</g>
	</g>
</g>
<g>
</g>
<g>
</g>
<g>
</g>
<g>
</g>
<g>
</g>
<g>
</g>
<g>
</g>
<g>
</g>
<g>
</g>
<g>
</g>
<g>
</g>
<g>
</g>
<g>
</g>
<g>
</g>
<g>
</g>
</g></svg>