<svg xmlns="http://www.w3.org/2000/svg" version="1.1" xmlns:xlink="http://www.w3.org/1999/xlink" xmlns:svgjs="http://svgjs.com/svgjs" width="512" height="512" x="0" y="0" viewBox="0 0 32 32" style="enable-background:new 0 0 512 512" xml:space="preserve" class=""><g><g id="Layer_2" data-name="Layer 2"><path d="m3 11a1 1 0 0 0 1-1v-5a1 1 0 0 1 1-1h5.5a1 1 0 0 0 0-2h-5.5a3 3 0 0 0 -3 3v5a1 1 0 0 0 1 1z" fill="#707070" data-original="#000000"></path><path d="m27 2h-5.5a1 1 0 0 0 0 2h5.5a1 1 0 0 1 1 1v5a1 1 0 0 0 2 0v-5a3 3 0 0 0 -3-3z" fill="#707070" data-original="#000000"></path><path d="m29 21a1 1 0 0 0 -1 1v5a1 1 0 0 1 -1 1h-5.5a1 1 0 0 0 0 2h5.5a3 3 0 0 0 3-3v-5a1 1 0 0 0 -1-1z" fill="#707070" data-original="#000000"></path><path d="m10.5 28h-5.5a1 1 0 0 1 -1-1v-5a1 1 0 0 0 -2 0v5a3 3 0 0 0 3 3h5.5a1 1 0 0 0 0-2z" fill="#707070" data-original="#000000"></path><path d="m29 15h-26a1 1 0 0 0 0 2h26a1 1 0 0 0 0-2z" fill="#707070" data-original="#000000"></path></g></g></svg>