<svg height="512" viewBox="0 0 512 512" width="512" xmlns="http://www.w3.org/2000/svg"><g id="flat"><path d="m192 376h-106.31a28.373 28.373 0 0 0 -24.49 14.046l-1.315 2.248a28.372 28.372 0 0 0 7.587 37.114 150.385 150.385 0 0 0 89.591 29.6h51.6a65.574 65.574 0 0 0 40.944-14.354z" fill="#e57c90"/><path d="m187.743 163v-40l-11.062-13.137a10 10 0 0 1 -.558-12.154l11.091-15.934-1.237-7.169a6 6 0 0 1 4.228-6.779l59.7-17.461-27.932 100.165-34.273 20.743.043-13.274" fill="#f0b78f"/><path d="m249.91 50.37-27.94 100.16-34.27 20.74.04-13.27v-2.69a22.344 22.344 0 0 0 6.541-8.2l43.489-93.19z" fill="#c99978"/><path d="m217.743 240h32.772a52.488 52.488 0 0 0 40.985-19.7 52.489 52.489 0 0 0 9.935-45.521 29.839 29.839 0 0 1 10.9-36.511l15.784-10.268-61.036-56-43.34 68z" fill="#7a4922"/><path d="m215.743 280a34.65 34.65 0 0 0 5.9 29.194l14.1 18.806-65.817 48a205.446 205.446 0 0 1 -35.538-80z" fill="#f0b78f"/><path d="m235.743 328 9.588 1.6a76.472 76.472 0 0 1 55.828 41.233l6.584 13.167 96 32-6.423-12.846a213.573 213.573 0 0 1 -21.487-74.262l-4.09-40.892 32-8 60.893 138.079a43.327 43.327 0 0 1 -6.975 45.944 43.329 43.329 0 0 1 -35.074 14.8l-65.823-3.657a253.1 253.1 0 0 1 -107.156-30.515 252.281 252.281 0 0 1 -66.718-52.712q-6.9-7.666-12.964-15.941z" fill="#ff8aa0"/><path d="m371.743 288-14.21-9.473a21.987 21.987 0 0 1 -9.79-18.293 21.981 21.981 0 0 1 1.573-8.165l5.779-11.244a78.177 78.177 0 0 0 8.648-35.743v-8.089a12.994 12.994 0 0 1 12.994-12.993 12.993 12.993 0 0 1 12.816 10.857l14.19 85.143z" fill="#f0b78f"/><path d="m192.62 429.731-24.9 2.9h-23.082a25.858 25.858 0 0 0 -22.652 13.388l-2.824 5.131a12.848 12.848 0 0 0 1.557 14.622 12.849 12.849 0 0 0 9.7 4.421h49.964a39.977 39.977 0 0 0 25.64-9.305 17.7 17.7 0 0 0 2.105-25.076 17.7 17.7 0 0 0 -15.508-6.081z" fill="#f0b78f"/><path d="m169.525 232.672a34.421 34.421 0 0 1 -5.782-19.094v-36.689l-28.937 22.511a51.721 51.721 0 0 0 -16.268 21.617 51.721 51.721 0 0 0 6.645 50.24l6.56 8.747q1.01 8.07 2.645 16l81.355-16 8-32h-25.577a34.421 34.421 0 0 1 -28.641-15.332z" fill="#ff8aa0"/><path d="m347.743 120-55.637-76.5a27.92 27.92 0 0 0 -22.581-11.5 27.919 27.919 0 0 0 -25.3 16.114l-43.383 92.963a50 50 0 0 1 -14.613 18.323l-22.486 17.489v36.689a34.421 34.421 0 0 0 5.782 19.094 34.421 34.421 0 0 0 28.641 15.328h25.577l12-48a95.263 95.263 0 0 0 16-52.844v-11.156l24-40 40 40 24 32 25.737 19.3a6 6 0 0 0 9.171-2.572l11.439-28.6a6 6 0 0 0 -1.822-6.914z" fill="#f0b78f"/></g></svg>